<svg xmlns="http://www.w3.org/2000/svg" viewBox="0 0 66.07 66.07"><defs><style>.cls-1{fill:#fff;}</style></defs><title>logo-shape-white</title><g id="Calque_2" data-name="Calque 2"><g id="Calque_1-2" data-name="Calque 1"><path class="cls-1" d="M66.07,33a33,33,0,1,0-33,33,32.71,32.71,0,0,0,9.8-1.49l.07.07.13-.13A33.11,33.11,0,0,0,66.07,33Zm-38.34,15L40.84,35l9.43,9.43L37.16,57.49ZM36.45,58.2l-6.7,6.7a31.76,31.76,0,0,1-14-4.89L27,48.77ZM27,47.36,12.46,32.8l-10,10a32.06,32.06,0,0,1-1.19-5.21l21.05-21L40.13,34.26Zm14.52-13.1L52.76,23,65,35.26A31.68,31.68,0,0,1,61.37,48L54,40.62,51,43.68ZM54,42l6.83,6.83A31.89,31.89,0,0,1,59,51.73l-7.34-7.34ZM33,1a32.07,32.07,0,0,1,32,32c0,.3,0,.59,0,.88L52.76,21.63,40.84,33.55,22.37,15.08,1.16,36.29C1.06,35.22,1,34.13,1,33A32.07,32.07,0,0,1,33,1ZM2.87,43.81l9.59-9.6L26.32,48.07,14.94,59.45A32.22,32.22,0,0,1,2.87,43.81ZM33,65.07c-.66,0-1.31,0-2-.07l6.09-6.09L42,63.77A31.89,31.89,0,0,1,33,65.07ZM43.1,63.44,37.87,58.2,51,45.1l7.45,7.44A32.17,32.17,0,0,1,43.1,63.44Z"/></g></g></svg>