<svg xmlns="http://www.w3.org/2000/svg" viewBox="0 0 211.37 159.65"><defs><style>.cls-1{fill:#5571ff;}</style></defs><title>logo-color-simple</title><g id="Calque_2" data-name="Calque 2"><g id="Calque_1-2" data-name="Calque 1"><path class="cls-1" d="M0,89.43H7.91v70.22H0Z"/><path class="cls-1" d="M43.92,129.58v30.07H36V89.43H50.84c11.57,0,16.42,6.13,16.52,17.4v4.36c0,9.1-3.27,14.73-8.9,17l10.88,31.45H60.83L50.64,129.58Zm6.52-6.13c6.24,0,8.81-4,8.81-12.26v-3.66c0-8.31-2.57-11.77-8.9-11.77H43.92v27.69Z"/><path class="cls-1" d="M121.17,159.65H93.27V89.43h27.2v6.92H101.19V120h17.6v6.92h-17.6v25.82h20Z"/><path class="cls-1" d="M153,137.69v22H145.1V89.43H153v36.39l17.9-36.39h8.6L165.28,116,180,159.65h-8.71l-11.47-35.8Z"/><path class="cls-1" d="M203.46,89.43h7.91v70.22h-7.91Z"/><path class="cls-1" d="M137.14,33a33,33,0,1,0-23.23,31.55l.07.07.13-.13A33.1,33.1,0,0,0,137.14,33Zm-38.33,15L111.92,35l9.42,9.43-13.1,13.1Zm8.72,10.13-6.7,6.7a31.76,31.76,0,0,1-14-4.89L98.1,48.77ZM98.1,47.36,83.54,32.8l-10,10a31,31,0,0,1-1.19-5.21l21-21,17.76,17.77Zm14.52-13.1L123.84,23l12.22,12.22A31.84,31.84,0,0,1,132.45,48l-7.33-7.33-3.07,3.06ZM125.12,42,132,48.86c-.57,1-1.19,2-1.85,2.87l-7.34-7.34Zm-21-41a32.07,32.07,0,0,1,32,32c0,.3,0,.59,0,.88L123.84,21.63,111.92,33.55,93.45,15.08,72.24,36.29A32.09,32.09,0,0,1,104.11,1ZM74,43.81l9.59-9.6L97.4,48.07,86,59.45A32.22,32.22,0,0,1,74,43.81Zm30.16,21.26c-.66,0-1.31,0-2-.07l6.09-6.09,4.86,4.86A31.77,31.77,0,0,1,104.11,65.07Zm10.07-1.63L109,58.2l13.1-13.1,7.45,7.44A32.17,32.17,0,0,1,114.18,63.44Z"/></g></g></svg>