<svg xmlns="http://www.w3.org/2000/svg" viewBox="0 0 211.37 201.85"><defs><style>.cls-1{fill:#5571ff;}</style></defs><title>logo-color-full</title><g id="Calque_2" data-name="Calque 2"><g id="Calque_1-2" data-name="Calque 1"><path class="cls-1" d="M0,89.43H7.91v70.22H0Z"/><path class="cls-1" d="M43.92,129.58v30.07H36V89.43H50.84c11.57,0,16.42,6.13,16.52,17.4v4.36c0,9.1-3.27,14.73-8.9,17l10.88,31.45H60.83L50.64,129.58Zm6.52-6.13c6.24,0,8.81-4,8.81-12.26v-3.66c0-8.31-2.57-11.77-8.9-11.77H43.92v27.69Z"/><path class="cls-1" d="M121.17,159.65H93.27V89.43h27.2v6.92H101.19V120h17.6v6.92h-17.6v25.82h20Z"/><path class="cls-1" d="M153,137.69v22H145.1V89.43H153v36.39l17.9-36.39h8.6L165.28,116,180,159.65h-8.71l-11.47-35.8Z"/><path class="cls-1" d="M203.46,89.43h7.91v70.22h-7.91Z"/><path class="cls-1" d="M53.12,197.49l-.16-8-1.76.66,0-.09L54,188.82l.07.06,0,8.43,4-6.45-1.22-1.46,1-.58.58.63-.26,1.68-4.11,6.62Z"/><path class="cls-1" d="M59.55,197.42,61,189.49l-1.76.66,0-.09L62,188.82l.07.06-1.5,8.5,1.83-1.4.06.05-2.16,1.85Zm1.78-10.65.05-.79.3-.68.48-.08.88.08v.79l-.27.68-.45.08Z"/><path class="cls-1" d="M63.93,197.42l2.2-12.49-1.77.51,0-.09,2.79-1,.13.1L65,197.34,66.81,196l.06.05-2.16,1.85Z"/><path class="cls-1" d="M68.27,197.42l2.2-12.49-1.77.51,0-.09,2.79-1,.13.1-2.27,12.89L71.16,196l0,.05-2.16,1.85Z"/><path class="cls-1" d="M78.38,192l-4.88,1.52a3.33,3.33,0,0,0,2.27,3.54c1.13-.66,2.06-1.24,2.31-1.42l.1.11c-.6.44-1.33,1-2.18,1.53l-.85.56a3.37,3.37,0,0,1-2.72-3.49,5.45,5.45,0,0,1,3.81-5.12l1.07-.43a1.67,1.67,0,0,1,1.44,1.83A2.72,2.72,0,0,1,78.38,192Zm-.85-1.15a1.45,1.45,0,0,0-1.18-1.58,4.56,4.56,0,0,0-2.85,4.12l3.73-1.3A2.47,2.47,0,0,0,77.53,190.89Z"/><path class="cls-1" d="M84.29,194.63A5.74,5.74,0,0,1,88,189.36l1.35-.54a4,4,0,0,1,.85.26l.72-4.15-1.77.51,0-.09,2.79-1,.13.1-2.29,12.89L91.61,196l0,.05-2.16,1.85-.77-.46.42-2.33-2.85,2.79A3.61,3.61,0,0,1,84.29,194.63Zm4.88.33.85-4.84a5.33,5.33,0,0,0-2.07-.65,4.67,4.67,0,0,0-2.55,4.4,3.47,3.47,0,0,0,1.63,3Z"/><path class="cls-1" d="M94.71,184.94l-.31,4.44h-1l-.3-4.44Z"/><path class="cls-1" d="M102.33,192l-4.88,1.52a3.32,3.32,0,0,0,2.27,3.54c1.13-.66,2-1.24,2.31-1.42l.09.11c-.59.44-1.33,1-2.18,1.53l-.85.56a3.37,3.37,0,0,1-2.72-3.49,5.46,5.46,0,0,1,3.81-5.12l1.07-.43a1.67,1.67,0,0,1,1.44,1.83A2.81,2.81,0,0,1,102.33,192Zm-.86-1.15a1.45,1.45,0,0,0-1.18-1.58,4.54,4.54,0,0,0-2.84,4.12l3.73-1.3A2.58,2.58,0,0,0,101.47,190.89Z"/><path class="cls-1" d="M108,197.47l-1.18-3.71L104,197.69h-1l.26-1.2h1.42l.85-1.16,1.3-1.74-1.24-4.1-1.85.63,0-.09,2.66-1.17.12.06,1.14,3.75,2.55-3.66h1l-.24,1.2h-1.37l-.74,1-1.1,1.57,1.38,4.48,1.83-1.33.06.05-2.26,1.81Z"/><path class="cls-1" d="M111.75,194.39c0-2.26,1.25-3.9,3.77-5.08l1-.49a4.53,4.53,0,0,1,1.61.69l-.63.94a9.41,9.41,0,0,0-2.07-1,4.47,4.47,0,0,0-2.58,4.13c0,2.22,1.07,3.22,2.16,3.51a28.52,28.52,0,0,0,2.53-1.47l.07.09c-.64.5-1.44,1-2.27,1.61l-.83.57C113.34,197.88,111.75,196.66,111.75,194.39Z"/><path class="cls-1" d="M124.92,192,120,193.56a3.33,3.33,0,0,0,2.28,3.54c1.12-.66,2.05-1.24,2.31-1.42l.09.11c-.59.44-1.33,1-2.18,1.53l-.85.56a3.37,3.37,0,0,1-2.72-3.49,5.45,5.45,0,0,1,3.81-5.12l1.07-.43a1.67,1.67,0,0,1,1.44,1.83A2.72,2.72,0,0,1,124.92,192Zm-.85-1.15a1.45,1.45,0,0,0-1.18-1.58,4.56,4.56,0,0,0-2.85,4.12l3.74-1.3A2.58,2.58,0,0,0,124.07,190.89Z"/><path class="cls-1" d="M128.1,189.49l-1.76.66,0-.09,2.86-1.24.07.06-.36,2.13,2.49-2.19c1.24.15,2.25,1.17,2.25,3.16a5.62,5.62,0,0,1-3,5.1l-1.6.8a3.57,3.57,0,0,1-1.24-.48l-.78,4.45h-1Zm4.42,3.18c0-1.76-.78-2.74-1.87-3l-1.81,1.5-.91,5.21a3.2,3.2,0,0,0,2,.87C132.11,196.33,132.52,194.42,132.52,192.67Z"/><path class="cls-1" d="M134.82,197.42l1.44-8.23h-1.18l0-.09h1.18l.22-1.14,1.11-1.19h.12l-.41,2.33h1.85l0,.09H137.3l-1.42,8.15,2.2-1.38,0,.07-2.53,1.85Z"/><path class="cls-1" d="M139.92,197.42l1.41-7.93-1.76.66,0-.09,2.86-1.24.07.06-1.49,8.5,1.83-1.4.05.05-2.16,1.85Zm1.78-10.65.05-.79.3-.68.48-.08.89.08v.79l-.28.68-.44.08Z"/><path class="cls-1" d="M144.12,194.39a5.33,5.33,0,0,1,3.19-5.07l1.13-.5c1.31,0,2.55,1.11,2.55,3.39a5.47,5.47,0,0,1-3.19,5.17l-1.13.5C145.36,197.88,144.12,196.66,144.12,194.39Zm5.76-1.83c0-2.37-.92-3.07-2.2-3.25-1.9.62-2.45,3-2.45,4.73,0,2.29,1,3.19,2.16,3.38C149.31,196.77,149.88,194.26,149.88,192.56Z"/><path class="cls-1" d="M157,197.42l1.14-6.36c.15-.87-.11-1.37-.89-1.37a3.89,3.89,0,0,0-1.94.91l-.75.52-1.15,6.48h-1l1.42-8.11-1.76.66,0-.09,2.86-1.24.08.06-.38,2.11,3.07-2.17c1.32,0,1.8.73,1.61,1.78l-1.2,6.74,1.83-1.36.05.05-2.16,1.85Z"/><path class="cls-1" d="M137.14,33a33,33,0,1,0-23.23,31.55l.07.07.13-.13A33.1,33.1,0,0,0,137.14,33Zm-38.33,15L111.92,35l9.42,9.43-13.1,13.1Zm8.72,10.13-6.7,6.7a31.76,31.76,0,0,1-14-4.89L98.1,48.77ZM98.1,47.36,83.54,32.8l-10,10a31,31,0,0,1-1.19-5.21l21-21,17.76,17.77Zm14.52-13.1L123.84,23l12.22,12.22A31.84,31.84,0,0,1,132.45,48l-7.33-7.33-3.07,3.06ZM125.12,42,132,48.86c-.57,1-1.19,2-1.85,2.87l-7.34-7.34Zm-21-41a32.07,32.07,0,0,1,32,32c0,.3,0,.59,0,.88L123.84,21.63,111.92,33.55,93.45,15.08,72.24,36.29A32.09,32.09,0,0,1,104.11,1ZM74,43.81l9.59-9.6L97.4,48.07,86,59.45A32.22,32.22,0,0,1,74,43.81Zm30.16,21.26c-.66,0-1.31,0-2-.07l6.09-6.09,4.86,4.86A31.77,31.77,0,0,1,104.11,65.07Zm10.07-1.63L109,58.2l13.1-13.1,7.45,7.44A32.17,32.17,0,0,1,114.18,63.44Z"/></g></g></svg>